<svg xmlns="http://www.w3.org/2000/svg" version="1.1" xmlns:xlink="http://www.w3.org/1999/xlink" xmlns:svgjs="http://svgjs.dev/svgjs" width="2000" height="1500" viewBox="0 0 2000 1500"><rect width="2000" height="1500" fill="#c9efc7"></rect><g transform="matrix(0.75,0,0,0.75,249.090909090909,589.0947656926264)"><svg viewBox="0 0 396 85" data-background-color="#c9efc7" preserveAspectRatio="xMidYMid meet" height="429" width="2000" xmlns="http://www.w3.org/2000/svg" xmlns:xlink="http://www.w3.org/1999/xlink"><g id="tight-bounds" transform="matrix(1,0,0,1,0.24000000000003752,0.007987307309264224)"><svg viewBox="0 0 395.5199999999999 84.98402538538149" height="84.98402538538149" width="395.5199999999999"><g><svg viewBox="0 0 416.70589999999993 89.53616703033535" height="84.98402538538149" width="395.5199999999999"><g><svg viewBox="0 0 416.70589999999993 89.53616703033535" height="89.53616703033535" width="416.70589999999993"><g id="textblocktransform"><svg viewBox="0 0 416.70589999999993 89.53616703033535" height="89.53616703033535" width="416.70589999999993" id="textblock"><g><svg viewBox="0 0 416.70589999999993 58.8952" height="58.8952" width="416.70589999999993"><g><svg><g></g><g></g></svg></g><g><svg><g></g><g><svg></svg></g></svg></g><g id="text-0"><svg viewBox="0 0 416.70589999999993 58.8952" height="58.8952" width="416.70589999999993"><g><svg xmlns="http://www.w3.org/2000/svg" xmlns:xlink="http://www.w3.org/1999/xlink" version="1.1" x="0" y="0" viewBox="14 24 71 52" enable-background="new 0 0 100 100" xml:space="preserve" height="58.8952" width="80.41460000000001" class="icon-cg-0" data-fill-palette-color="accent" id="cg-0"><g fill="#454545" data-fill-palette-color="accent"><g fill="#454545" data-fill-palette-color="accent"><g fill="#454545" data-fill-palette-color="accent"><path d="M27 61h-8.5c-2.1 0-4.5-1.7-4.5-4V28c0-2.3 2.4-4 4.5-4h48c2.1 0 3.5 1.6 3.5 4v9h-2v-9c0-0.6-0.1-2-1.5-2h-48c-1.1 0-2.5 0.9-2.5 2v29c0 1.1 1.4 2 2.5 2H27V61z" fill="#454545" data-fill-palette-color="accent"></path></g><g fill="#454545" data-fill-palette-color="accent"><rect x="21" y="45" width="6" height="2" fill="#454545" data-fill-palette-color="accent"></rect></g><g fill="#454545" data-fill-palette-color="accent"><rect x="21" y="52" width="6" height="2" fill="#454545" data-fill-palette-color="accent"></rect></g><g fill="#454545" data-fill-palette-color="accent"><rect x="15" y="32" width="54" height="2" fill="#454545" data-fill-palette-color="accent"></rect></g><g fill="#454545" data-fill-palette-color="accent"><rect x="15" y="39" width="12" height="2" fill="#454545" data-fill-palette-color="accent"></rect></g></g><g fill="#454545" data-fill-palette-color="accent"><g fill="#454545" data-fill-palette-color="accent"><path d="M81 76H33c-2.2 0-4-1.8-4-4V43c0-2.2 1.8-4 4-4h48c2.2 0 4 1.8 4 4v29C85 74.2 83.2 76 81 76zM33 41c-1.1 0-2 0.9-2 2v29c0 1.1 0.9 2 2 2h48c1.1 0 2-0.9 2-2V43c0-1.1-0.9-2-2-2H33z" fill="#454545" data-fill-palette-color="accent"></path></g><g fill="#454545" data-fill-palette-color="accent"><rect x="36" y="60" width="36" height="2" fill="#454545" data-fill-palette-color="accent"></rect></g><g fill="#454545" data-fill-palette-color="accent"><rect x="36" y="67" width="15" height="2" fill="#454545" data-fill-palette-color="accent"></rect></g><g fill="#454545" data-fill-palette-color="accent"><rect x="30" y="47" width="54" height="2" fill="#454545" data-fill-palette-color="accent"></rect></g><g fill="#454545" data-fill-palette-color="accent"><rect x="30" y="54" width="54" height="2" fill="#454545" data-fill-palette-color="accent"></rect></g></g></g></svg></g><g transform="matrix(1,0,0,1,94.3194,0)"><svg width="322.38649999999996" viewBox="6.5 -35.7 199.24 36.400000000000006" height="58.8952" data-palette-color="#454545"><path d="M14.6 0L6.5 0 6.5-35 13.45-35Q18.85-35 21.85-32.75 24.85-30.5 24.85-26.5L24.85-26.5Q24.85-23.55 23.1-21.48 21.35-19.4 18.2-18.65L18.2-18.65 18.2-18.35Q22.5-17.8 24.93-15.38 27.35-12.95 27.35-9.25L27.35-9.25Q27.35-4.9 24-2.45 20.65 0 14.6 0L14.6 0ZM13.5-33.8L13.5-33.8 9.9-33.8 9.9-18.8 13.45-18.8Q21.35-18.8 21.35-26.3L21.35-26.3Q21.35-33.8 13.5-33.8ZM14.6-17.6L14.6-17.6 9.9-17.6 9.9-1.2 14.6-1.2Q23.75-1.2 23.75-9.4L23.75-9.4Q23.75-17.6 14.6-17.6ZM36.85-14L36.85-35 40.25-35 40.25-13.9Q40.25-7.85 43.22-4.48 46.2-1.1 51.6-1.1L51.6-1.1Q55-1.1 57.52-2.43 60.05-3.75 61.42-6.1 62.8-8.45 62.7-11.5L62.7-11.5 61.85-35 65.25-35 64.4-11.5Q64.2-5.5 60.82-2.4 57.45 0.7 51.2 0.7L51.2 0.7Q44.45 0.7 40.65-3.23 36.85-7.15 36.85-14L36.85-14ZM74.2-1.1L74.2-1.1 74.5-4.1 74.8-4.1Q76.75-2.4 79.2-1.45 81.65-0.5 84.05-0.5L84.05-0.5Q87.45-0.5 89.55-2.38 91.65-4.25 91.65-7.4L91.65-7.4Q91.65-9.15 90.87-10.65 90.09-12.15 88.32-13.7 86.55-15.25 83.45-17.05L83.45-17.05Q81.3-18.3 79.34-19.68 77.4-21.05 76.15-22.88 74.9-24.7 74.9-27.25L74.9-27.25Q74.9-31.05 77.65-33.38 80.4-35.7 84.9-35.7L84.9-35.7Q86.9-35.7 89.2-35.27 91.5-34.85 92.75-34.2L92.75-34.2 92.5-31.4 92.2-31.4Q89.34-34.5 84.9-34.5L84.9-34.5Q81.7-34.5 79.75-32.88 77.8-31.25 77.8-28.5L77.8-28.5Q77.8-26.45 78.87-24.98 79.95-23.5 81.65-22.33 83.34-21.15 85.3-20.05L85.3-20.05Q87.55-18.75 89.67-17.3 91.8-15.85 93.17-13.83 94.55-11.8 94.55-8.75L94.55-8.75Q94.55-5.95 93.25-3.83 91.95-1.7 89.57-0.5 87.2 0.7 84.05 0.7L84.05 0.7Q82.05 0.7 79.34 0.2 76.65-0.3 74.2-1.1ZM119.79 0L104.39 0 104.39-35 119.64-35 119.64-32.55 110.89-33.7Q108.59-34 107.79-34L107.79-34 107.79-18.75Q108.44-18.75 110.89-18.9L110.89-18.9 119.09-19.4 119.09-17.1 110.89-17.6Q108.44-17.75 107.79-17.75L107.79-17.75 107.79-1Q108.69-1 110.94-1.3L110.94-1.3 119.79-2.45 119.79 0ZM128.74 0L125.09 0 138.54-35 141.64-35 155.09 0 151.44 0 145.24-16.4 133.89-16.4 128.74 0ZM139.19-32.4L138.89-32.4 134.24-17.6 144.79-17.6 139.19-32.4ZM160.14-1.1L160.14-1.1 160.44-4.1 160.74-4.1Q162.69-2.4 165.14-1.45 167.59-0.5 169.99-0.5L169.99-0.5Q173.39-0.5 175.49-2.38 177.59-4.25 177.59-7.4L177.59-7.4Q177.59-9.15 176.81-10.65 176.04-12.15 174.26-13.7 172.49-15.25 169.39-17.05L169.39-17.05Q167.24-18.3 165.29-19.68 163.34-21.05 162.09-22.88 160.84-24.7 160.84-27.25L160.84-27.25Q160.84-31.05 163.59-33.38 166.34-35.7 170.84-35.7L170.84-35.7Q172.84-35.7 175.14-35.27 177.44-34.85 178.69-34.2L178.69-34.2 178.44-31.4 178.14-31.4Q175.29-34.5 170.84-34.5L170.84-34.5Q167.64-34.5 165.69-32.88 163.74-31.25 163.74-28.5L163.74-28.5Q163.74-26.45 164.81-24.98 165.89-23.5 167.59-22.33 169.29-21.15 171.24-20.05L171.24-20.05Q173.49-18.75 175.61-17.3 177.74-15.85 179.11-13.83 180.49-11.8 180.49-8.75L180.49-8.75Q180.49-5.95 179.19-3.83 177.89-1.7 175.51-0.5 173.14 0.7 169.99 0.7L169.99 0.7Q167.99 0.7 165.29 0.2 162.59-0.3 160.14-1.1ZM205.74 0L190.34 0 190.34-35 205.59-35 205.59-32.55 196.84-33.7Q194.54-34 193.74-34L193.74-34 193.74-18.75Q194.39-18.75 196.84-18.9L196.84-18.9 205.04-19.4 205.04-17.1 196.84-17.6Q194.39-17.75 193.74-17.75L193.74-17.75 193.74-1Q194.64-1 196.89-1.3L196.89-1.3 205.74-2.45 205.74 0Z" opacity="1" transform="matrix(1,0,0,1,0,0)" fill="#454545" class="wordmark-text-0" data-fill-palette-color="primary"></path></svg></g></svg></g></svg></g><g transform="matrix(1,0,0,1,79.5908269,72.7989432352)"><svg viewBox="0 0 257.52424619999994 16.737223795135343" height="16.737223795135343" width="257.52424619999994"><g transform="matrix(1,0,0,1,0,0)"><svg width="257.52424619999994" viewBox="3.25 -38.7 764.61 49.7" height="16.737223795135343" data-palette-color="#454545"><path d="M12.2-34.85L18.5-15.6 19-15.6 26.3-34.6 33.2-34.4 33.4-12.9 34.35 0 27.6 0 27.85-13 27.3-26.15 21.3-9.6 15.15-9.3 9.55-26.15 9.1-13 9.45 0 3.25 0 3.95-12.15 4.25-33.6 12.2-34.85ZM45.25 0Q42.3 0 40.42-1.88 38.55-3.75 38.55-6.93 38.55-10.1 41.45-12.43 44.35-14.75 48.5-14.75L48.5-14.75 51.9-14.75 51.9-15.6Q51.9-18.05 50.9-18.95 49.9-19.85 47.15-19.85L47.15-19.85Q46-19.85 44.42-19.38 42.85-18.9 40.9-17.9L40.9-17.9 39.45-21.85Q41.6-23.35 44.67-24.55 47.75-25.75 49.75-25.75L49.75-25.75Q57.6-25.75 57.6-18.15L57.6-18.15 57.6-8.35Q57.6-5.55 59.35-2.1L59.35-2.1 54.05 0.15Q52.8-2.25 52.2-4.15L52.2-4.15Q49.45 0 45.25 0L45.25 0ZM47.35-5.1L47.35-5.1Q49.35-5.1 51.9-7.15L51.9-7.15 51.9-10.5Q49.25-11.1 47.6-11.1L47.6-11.1Q44.45-11.1 44.45-8.3L44.45-8.3Q44.45-6.85 45.25-5.98 46.05-5.1 47.35-5.1ZM85-3.3L79.3 0.5 69.9-13.35 69.9-13 70.45-1.25 63.7 0 64.3-12.15 63.7-37.45 70.55-38.7 69.9-14.55 79.9-25.5 84.6-22.3 75.85-14.1 85-3.3ZM96.79-5.1L96.79-5.1Q98.24-5.1 99.84-5.85 101.44-6.6 102.34-7.35L102.34-7.35 103.24-8.1 105.54-5.3Q105.04-4.45 103.99-3.35 102.94-2.25 101.87-1.48 100.79-0.7 99.02-0.08 97.24 0.55 95.34 0.55L95.34 0.55Q91.29 0.55 88.74-2.53 86.19-5.6 86.19-10.45L86.19-10.45Q86.19-16.55 89.74-21.15 93.29-25.75 98.04-25.75L98.04-25.75Q101.69-25.75 103.72-23.7 105.74-21.65 105.74-17.95L105.74-17.95Q105.74-15.75 104.99-12.95L104.99-12.95 103.99-11.9 91.49-10.75Q92.34-5.1 96.79-5.1ZM96.79-20.6L96.79-20.6Q94.59-20.6 93.09-18.82 91.59-17.05 91.34-14.3L91.34-14.3 99.84-15.35Q99.99-16.5 99.99-17.25L99.99-17.25Q99.99-20.6 96.79-20.6ZM118.89-34.5L129.74-34.5Q134.54-34.5 137.39-31.78 140.24-29.05 140.24-24.3 140.24-19.55 136.64-16.18 133.04-12.8 127.84-12.8L127.84-12.8 124.99-12.8 125.59 0 118.89 0 119.49-12.15 118.89-34.5ZM127.94-29.45L127.94-29.45 125.49-29.45 125.14-17.65 128.54-17.65Q131.04-17.65 132.41-19.3 133.79-20.95 133.79-24L133.79-24Q133.79-29.45 127.94-29.45ZM148.24 0Q145.29 0 143.41-1.88 141.54-3.75 141.54-6.93 141.54-10.1 144.44-12.43 147.34-14.75 151.49-14.75L151.49-14.75 154.89-14.75 154.89-15.6Q154.89-18.05 153.89-18.95 152.89-19.85 150.14-19.85L150.14-19.85Q148.99-19.85 147.41-19.38 145.84-18.9 143.89-17.9L143.89-17.9 142.44-21.85Q144.59-23.35 147.66-24.55 150.74-25.75 152.74-25.75L152.74-25.75Q160.59-25.75 160.59-18.15L160.59-18.15 160.59-8.35Q160.59-5.55 162.34-2.1L162.34-2.1 157.04 0.15Q155.79-2.25 155.19-4.15L155.19-4.15Q152.44 0 148.24 0L148.24 0ZM150.34-5.1L150.34-5.1Q152.34-5.1 154.89-7.15L154.89-7.15 154.89-10.5Q152.24-11.1 150.59-11.1L150.59-11.1Q147.44-11.1 147.44-8.3L147.44-8.3Q147.44-6.85 148.24-5.98 149.04-5.1 150.34-5.1ZM173.83 11L167.38 9.65 172.53-1.9 168.83-12 163.78-24.15 170.43-25.4 173.63-14.75 175.28-9.7 175.93-9.7 177.13-13.35 180.73-25.45 186.88-24.7 178.03-1.45 173.83 11ZM204.43-12.65Q204.43-16.1 203.83-17.25 203.23-18.4 201.03-18.4 198.83-18.4 196.03-16.65L196.03-16.65 196.03-13 196.58-1.25 189.88 0 190.48-12.15Q190.28-18.85 189.38-24.15L189.38-24.15 195.43-25.45Q195.78-22.55 195.93-19.8L195.93-19.8Q196.68-20.8 197.63-21.78 198.58-22.75 200.63-23.98 202.68-25.2 204.78-25.2 206.88-25.2 208.33-23.85 209.78-22.5 210.18-20.15L210.18-20.15Q214.33-25.2 218.58-25.2L218.58-25.2Q221.23-25.2 222.78-23.43 224.33-21.65 224.33-18.6L224.33-18.6 224.03-13 224.58-1 217.83 0.25 218.43-12.65Q218.43-16.1 217.83-17.25 217.23-18.4 215.08-18.4 212.93-18.4 210.23-16.75L210.23-16.75 210.03-13 210.58-1 203.83 0.25 204.43-12.65ZM239.08-5.1L239.08-5.1Q240.53-5.1 242.13-5.85 243.73-6.6 244.63-7.35L244.63-7.35 245.53-8.1 247.83-5.3Q247.33-4.45 246.28-3.35 245.23-2.25 244.15-1.48 243.08-0.7 241.3-0.08 239.53 0.55 237.63 0.55L237.63 0.55Q233.58 0.55 231.03-2.53 228.48-5.6 228.48-10.45L228.48-10.45Q228.48-16.55 232.03-21.15 235.58-25.75 240.33-25.75L240.33-25.75Q243.98-25.75 246-23.7 248.03-21.65 248.03-17.95L248.03-17.95Q248.03-15.75 247.28-12.95L247.28-12.95 246.28-11.9 233.78-10.75Q234.63-5.1 239.08-5.1ZM239.08-20.6L239.08-20.6Q236.88-20.6 235.38-18.82 233.88-17.05 233.63-14.3L233.63-14.3 242.13-15.35Q242.28-16.5 242.28-17.25L242.28-17.25Q242.28-20.6 239.08-20.6ZM266.88-12.65Q266.88-16.1 266.28-17.25 265.68-18.4 263.48-18.4 261.28-18.4 258.48-16.65L258.48-16.65 258.48-13 259.03-1.25 252.33 0 252.93-12.15Q252.73-18.85 251.83-24.15L251.83-24.15 257.88-25.45Q258.23-22.55 258.38-19.8L258.38-19.8Q259.13-20.8 260.08-21.78 261.03-22.75 263.08-23.98 265.13-25.2 267.4-25.2 269.68-25.2 271.23-23.43 272.78-21.65 272.78-18.6L272.78-18.6 272.48-13 273.03-1 266.28 0.25 266.88-12.65ZM277.57-24.2L280.47-24.2 280.47-29.65 287.22-30.95 286.57-24.2 292.62-24.2 292.07-20.1 286.37-20.1 286.12-9.65Q286.12-7.3 286.57-6.53 287.02-5.75 288.22-5.75 289.42-5.75 291.42-6.3L291.42-6.3 291.72-2.75Q288.42 0 285.92 0 283.42 0 281.82-1.83 280.22-3.65 280.22-6.6L280.22-6.6 280.52-12.2 280.47-20.1 277.02-20.1 277.57-24.2ZM303.82-4.65L303.82-4.65Q306.42-4.65 306.42-6.95L306.42-6.95Q306.42-7.75 305.3-8.45 304.17-9.15 302.55-9.85 300.92-10.55 299.3-11.43 297.67-12.3 296.55-13.85 295.42-15.4 295.42-17.4L295.42-17.4Q295.42-20.75 298.37-23.25 301.32-25.75 305.17-25.75L305.17-25.75Q306.97-25.75 308.7-25.33 310.42-24.9 312.02-24L312.02-24 308.67-17.9Q308.32-18.2 307.77-18.65 307.22-19.1 305.7-19.83 304.17-20.55 303-20.55 301.82-20.55 301.2-20.03 300.57-19.5 300.57-18.57 300.57-17.65 302.3-16.73 304.02-15.8 306.07-15.03 308.12-14.25 309.85-12.48 311.57-10.7 311.57-8.25L311.57-8.25Q311.57-4.75 308.7-2.1 305.82 0.55 302.07 0.55L302.07 0.55Q299.67 0.55 297.6-0.5 295.52-1.55 294.62-2.6L294.62-2.6 293.72-3.65 297.67-8.25Q297.97-7.85 298.52-7.25 299.07-6.65 300.7-5.65 302.32-4.65 303.82-4.65ZM328.67 0Q325.72 0 323.84-1.88 321.97-3.75 321.97-6.93 321.97-10.1 324.87-12.43 327.77-14.75 331.92-14.75L331.92-14.75 335.32-14.75 335.32-15.6Q335.32-18.05 334.32-18.95 333.32-19.85 330.57-19.85L330.57-19.85Q329.42-19.85 327.84-19.38 326.27-18.9 324.32-17.9L324.32-17.9 322.87-21.85Q325.02-23.35 328.09-24.55 331.17-25.75 333.17-25.75L333.17-25.75Q341.02-25.75 341.02-18.15L341.02-18.15 341.02-8.35Q341.02-5.55 342.77-2.1L342.77-2.1 337.47 0.15Q336.22-2.25 335.62-4.15L335.62-4.15Q332.87 0 328.67 0L328.67 0ZM330.77-5.1L330.77-5.1Q332.77-5.1 335.32-7.15L335.32-7.15 335.32-10.5Q332.67-11.1 331.02-11.1L331.02-11.1Q327.87-11.1 327.87-8.3L327.87-8.3Q327.87-6.85 328.67-5.98 329.47-5.1 330.77-5.1ZM355.91-34.5L366.76-34.5Q371.56-34.5 374.36-32.33 377.16-30.15 377.16-26.5L377.16-26.5Q377.16-20.65 372.36-18.35L372.36-18.35Q378.86-16.1 378.86-10.05L378.86-10.05Q378.86-5.5 374.96-2.48 371.06 0.55 365.16 0.55L365.16 0.55Q362.06 0.55 355.91 0L355.91 0 356.51-12.15 355.91-34.5ZM366.11-14.85L366.11-14.85 362.06-14.85 362.01-13 362.36-4.85Q365.26-4.6 366.81-4.6L366.81-4.6Q369.46-4.6 370.94-5.93 372.41-7.25 372.41-9.8 372.41-12.35 370.91-13.6 369.41-14.85 366.11-14.85ZM364.96-29.45L364.96-29.45 362.51-29.45 362.21-19.7 365.46-19.7Q368.01-19.7 369.36-21.08 370.71-22.45 370.71-25L370.71-25Q370.71-29.45 364.96-29.45ZM383.26-24.15L383.26-24.15 389.31-25.45Q389.76-21.6 389.91-18.15L389.91-18.15Q394.46-25.2 398.46-25.2L398.46-25.2 397.91-17.4Q395.01-17.4 393.33-16.88 391.66-16.35 389.91-14.8L389.91-14.8 389.91-13 390.46-1.25 383.76 0 384.36-12.15Q384.16-18.85 383.26-24.15ZM410.61-5.1L410.61-5.1Q412.06-5.1 413.66-5.85 415.26-6.6 416.16-7.35L416.16-7.35 417.06-8.1 419.36-5.3Q418.86-4.45 417.81-3.35 416.76-2.25 415.68-1.48 414.61-0.7 412.83-0.08 411.06 0.55 409.16 0.55L409.16 0.55Q405.11 0.55 402.56-2.53 400.01-5.6 400.01-10.45L400.01-10.45Q400.01-16.55 403.56-21.15 407.11-25.75 411.86-25.75L411.86-25.75Q415.51-25.75 417.53-23.7 419.56-21.65 419.56-17.95L419.56-17.95Q419.56-15.75 418.81-12.95L418.81-12.95 417.81-11.9 405.31-10.75Q406.16-5.1 410.61-5.1ZM410.61-20.6L410.61-20.6Q408.41-20.6 406.91-18.82 405.41-17.05 405.16-14.3L405.16-14.3 413.66-15.35Q413.81-16.5 413.81-17.25L413.81-17.25Q413.81-20.6 410.61-20.6ZM432.9-5.1L432.9-5.1Q434.35-5.1 435.95-5.85 437.55-6.6 438.45-7.35L438.45-7.35 439.35-8.1 441.65-5.3Q441.15-4.45 440.1-3.35 439.05-2.25 437.98-1.48 436.9-0.7 435.13-0.08 433.35 0.55 431.45 0.55L431.45 0.55Q427.4 0.55 424.85-2.53 422.3-5.6 422.3-10.45L422.3-10.45Q422.3-16.55 425.85-21.15 429.4-25.75 434.15-25.75L434.15-25.75Q437.8-25.75 439.83-23.7 441.85-21.65 441.85-17.95L441.85-17.95Q441.85-15.75 441.1-12.95L441.1-12.95 440.1-11.9 427.6-10.75Q428.45-5.1 432.9-5.1ZM432.9-20.6L432.9-20.6Q430.7-20.6 429.2-18.82 427.7-17.05 427.45-14.3L427.45-14.3 435.95-15.35Q436.1-16.5 436.1-17.25L436.1-17.25Q436.1-20.6 432.9-20.6ZM444.5 0.3L445.35-4.95 455.9-20 444.85-19.25 446-25.55 454.55-25 462.9-25.6 462.05-20.4 451.45-5.3 463.6-6 462.5 0.3 454-0.25 444.5 0.3ZM476.05-5.1L476.05-5.1Q477.5-5.1 479.1-5.85 480.7-6.6 481.6-7.35L481.6-7.35 482.5-8.1 484.8-5.3Q484.3-4.45 483.25-3.35 482.2-2.25 481.12-1.48 480.05-0.7 478.27-0.08 476.5 0.55 474.6 0.55L474.6 0.55Q470.55 0.55 468-2.53 465.45-5.6 465.45-10.45L465.45-10.45Q465.45-16.55 469-21.15 472.55-25.75 477.3-25.75L477.3-25.75Q480.95-25.75 482.97-23.7 485-21.65 485-17.95L485-17.95Q485-15.75 484.25-12.95L484.25-12.95 483.25-11.9 470.75-10.75Q471.6-5.1 476.05-5.1ZM476.05-20.6L476.05-20.6Q473.85-20.6 472.35-18.82 470.85-17.05 470.6-14.3L470.6-14.3 479.1-15.35Q479.25-16.5 479.25-17.25L479.25-17.25Q479.25-20.6 476.05-20.6ZM517.59-14.4L519.34-6.25 519.99-6.25 521.59-13.1 524.19-25.45 530.29-24.7 526.64-12.3 523.59-0.6 515.39 0.15 512.64-12 512.39-12.8 509.04-0.6 501.09 0.15 498.19-12 494.74-24.15 501.29-25.4 503.34-14.4 505.14-6.25 505.79-6.25 510.09-20.5 509.04-24.15 515.49-25.4 517.59-14.4ZM533.59-24.2L540.29-25.45 539.69-13 540.24-1.25 533.54 0 534.14-12.15 533.59-24.2ZM533.24-32.77Q533.24-34.45 534.54-35.77 535.84-37.1 537.54-37.1 539.24-37.1 540.14-36.18 541.04-35.25 541.04-33.4 541.04-31.55 539.77-30.23 538.49-28.9 536.82-28.9 535.14-28.9 534.19-30 533.24-31.1 533.24-32.77ZM544.84-24.2L547.74-24.2 547.74-29.65 554.49-30.95 553.84-24.2 559.89-24.2 559.34-20.1 553.64-20.1 553.39-9.65Q553.39-7.3 553.84-6.53 554.29-5.75 555.49-5.75 556.69-5.75 558.69-6.3L558.69-6.3 558.99-2.75Q555.69 0 553.19 0 550.69 0 549.09-1.83 547.49-3.65 547.49-6.6L547.49-6.6 547.79-12.2 547.74-20.1 544.29-20.1 544.84-24.2ZM578.13-12.65Q578.13-16.1 577.53-17.25 576.93-18.4 574.74-18.4 572.53-18.4 569.74-16.65L569.74-16.65 569.74-13 570.28-1.25 563.53 0 564.13-12.15 563.53-37.45 570.38-38.7 569.74-25.75 569.74-19.9Q570.49-20.9 571.43-21.85 572.38-22.8 574.38-24 576.38-25.2 578.66-25.2 580.93-25.2 582.49-23.43 584.03-21.65 584.03-18.6L584.03-18.6 583.74-13 584.28-1 577.53 0.25 578.13-12.65ZM598.58-34.5L609.43-34.5Q614.23-34.5 617.03-32.33 619.83-30.15 619.83-26.5L619.83-26.5Q619.83-20.65 615.03-18.35L615.03-18.35Q621.53-16.1 621.53-10.05L621.53-10.05Q621.53-5.5 617.63-2.48 613.73 0.55 607.83 0.55L607.83 0.55Q604.73 0.55 598.58 0L598.58 0 599.18-12.15 598.58-34.5ZM608.78-14.85L608.78-14.85 604.73-14.85 604.68-13 605.03-4.85Q607.93-4.6 609.48-4.6L609.48-4.6Q612.13-4.6 613.6-5.93 615.08-7.25 615.08-9.8 615.08-12.35 613.58-13.6 612.08-14.85 608.78-14.85ZM607.63-29.45L607.63-29.45 605.18-29.45 604.88-19.7 608.13-19.7Q610.68-19.7 612.03-21.08 613.38-22.45 613.38-25L613.38-25Q613.38-29.45 607.63-29.45ZM632.48 0L632.48 0Q629.78 0 628.1-1.78 626.43-3.55 626.43-6.45L626.43-6.45 626.73-12.2 626.18-24.2 632.88-25.45 632.23-10.25Q632.23-8.1 633-7.1 633.78-6.1 635.48-6.1 637.18-6.1 640.18-7.8L640.18-7.8 640.18-10.8 639.63-23.95 646.38-25.2 645.78-12.7 645.83-8.6Q645.83-5.4 647.48-2.15L647.48-2.15 642.28 0.15Q640.63-3.1 640.28-5.05L640.28-5.05Q635.78 0 632.48 0ZM659.52-4.65L659.52-4.65Q662.12-4.65 662.12-6.95L662.12-6.95Q662.12-7.75 661-8.45 659.87-9.15 658.25-9.85 656.62-10.55 655-11.43 653.37-12.3 652.25-13.85 651.12-15.4 651.12-17.4L651.12-17.4Q651.12-20.75 654.07-23.25 657.02-25.75 660.87-25.75L660.87-25.75Q662.67-25.75 664.4-25.33 666.12-24.9 667.72-24L667.72-24 664.37-17.9Q664.02-18.2 663.47-18.65 662.92-19.1 661.4-19.83 659.87-20.55 658.7-20.55 657.52-20.55 656.9-20.03 656.27-19.5 656.27-18.57 656.27-17.65 658-16.73 659.72-15.8 661.77-15.03 663.82-14.25 665.55-12.48 667.27-10.7 667.27-8.25L667.27-8.25Q667.27-4.75 664.4-2.1 661.52 0.55 657.77 0.55L657.77 0.55Q655.37 0.55 653.3-0.5 651.22-1.55 650.32-2.6L650.32-2.6 649.42-3.65 653.37-8.25Q653.67-7.85 654.22-7.25 654.77-6.65 656.4-5.65 658.02-4.65 659.52-4.65ZM680.67-5.1L680.67-5.1Q682.12-5.1 683.72-5.85 685.32-6.6 686.22-7.35L686.22-7.35 687.12-8.1 689.42-5.3Q688.92-4.45 687.87-3.35 686.82-2.25 685.75-1.48 684.67-0.7 682.9-0.08 681.12 0.55 679.22 0.55L679.22 0.55Q675.17 0.55 672.62-2.53 670.07-5.6 670.07-10.45L670.07-10.45Q670.07-16.55 673.62-21.15 677.17-25.75 681.92-25.75L681.92-25.75Q685.57-25.75 687.6-23.7 689.62-21.65 689.62-17.95L689.62-17.95Q689.62-15.75 688.87-12.95L688.87-12.95 687.87-11.9 675.37-10.75Q676.22-5.1 680.67-5.1ZM680.67-20.6L680.67-20.6Q678.47-20.6 676.97-18.82 675.47-17.05 675.22-14.3L675.22-14.3 683.72-15.35Q683.87-16.5 683.87-17.25L683.87-17.25Q683.87-20.6 680.67-20.6ZM698.97 0Q696.02 0 694.14-1.88 692.27-3.75 692.27-6.93 692.27-10.1 695.17-12.43 698.07-14.75 702.22-14.75L702.22-14.75 705.62-14.75 705.62-15.6Q705.62-18.05 704.62-18.95 703.62-19.85 700.87-19.85L700.87-19.85Q699.72-19.85 698.14-19.38 696.57-18.9 694.62-17.9L694.62-17.9 693.17-21.85Q695.32-23.35 698.39-24.55 701.47-25.75 703.47-25.75L703.47-25.75Q711.32-25.75 711.32-18.15L711.32-18.15 711.32-8.35Q711.32-5.55 713.07-2.1L713.07-2.1 707.77 0.15Q706.52-2.25 705.92-4.15L705.92-4.15Q703.17 0 698.97 0L698.97 0ZM701.07-5.1L701.07-5.1Q703.07-5.1 705.62-7.15L705.62-7.15 705.62-10.5Q702.97-11.1 701.32-11.1L701.32-11.1Q698.17-11.1 698.17-8.3L698.17-8.3Q698.17-6.85 698.97-5.98 699.77-5.1 701.07-5.1ZM724.97-4.65L724.97-4.65Q727.57-4.65 727.57-6.95L727.57-6.95Q727.57-7.75 726.44-8.45 725.32-9.15 723.69-9.85 722.07-10.55 720.44-11.43 718.82-12.3 717.69-13.85 716.57-15.4 716.57-17.4L716.57-17.4Q716.57-20.75 719.52-23.25 722.47-25.75 726.32-25.75L726.32-25.75Q728.12-25.75 729.84-25.33 731.57-24.9 733.17-24L733.17-24 729.82-17.9Q729.47-18.2 728.92-18.65 728.37-19.1 726.84-19.83 725.32-20.55 724.14-20.55 722.97-20.55 722.34-20.03 721.72-19.5 721.72-18.57 721.72-17.65 723.44-16.73 725.17-15.8 727.22-15.03 729.27-14.25 730.99-12.48 732.72-10.7 732.72-8.25L732.72-8.25Q732.72-4.75 729.84-2.1 726.97 0.55 723.22 0.55L723.22 0.55Q720.82 0.55 718.74-0.5 716.67-1.55 715.77-2.6L715.77-2.6 714.87-3.65 718.82-8.25Q719.12-7.85 719.67-7.25 720.22-6.65 721.84-5.65 723.47-4.65 724.97-4.65ZM746.11-5.1L746.11-5.1Q747.56-5.1 749.16-5.85 750.76-6.6 751.66-7.35L751.66-7.35 752.56-8.1 754.86-5.3Q754.36-4.45 753.31-3.35 752.26-2.25 751.19-1.48 750.11-0.7 748.34-0.08 746.56 0.55 744.66 0.55L744.66 0.55Q740.61 0.55 738.06-2.53 735.51-5.6 735.51-10.45L735.51-10.45Q735.51-16.55 739.06-21.15 742.61-25.75 747.36-25.75L747.36-25.75Q751.01-25.75 753.04-23.7 755.06-21.65 755.06-17.95L755.06-17.95Q755.06-15.75 754.31-12.95L754.31-12.95 753.31-11.9 740.81-10.75Q741.66-5.1 746.11-5.1ZM746.11-20.6L746.11-20.6Q743.91-20.6 742.41-18.82 740.91-17.05 740.66-14.3L740.66-14.3 749.16-15.35Q749.31-16.5 749.31-17.25L749.31-17.25Q749.31-20.6 746.11-20.6ZM758.51-3.28Q758.51-4.95 759.71-6.18 760.91-7.4 762.51-7.4 764.11-7.4 764.94-6.53 765.76-5.65 765.76-3.95 765.76-2.25 764.61-0.98 763.46 0.3 761.89 0.3 760.31 0.3 759.41-0.65 758.51-1.6 758.51-3.28ZM760.31-33.75L767.86-35 765.06-12.85 760.31-12.15 760.31-33.75Z" opacity="1" transform="matrix(1,0,0,1,0,0)" fill="#454545" class="slogan-text-1" data-fill-palette-color="secondary" id="text-1"></path></svg></g></svg></g></svg></g></svg></g></svg></g><defs></defs></svg><rect width="395.5199999999999" height="84.98402538538149" fill="none" stroke="none" visibility="hidden"></rect></g></svg></g></svg>