<svg xmlns="http://www.w3.org/2000/svg" version="1.1" xmlns:xlink="http://www.w3.org/1999/xlink" xmlns:svgjs="http://svgjs.dev/svgjs" width="128" height="128" viewBox="0 0 128 128"><g transform="matrix(0.8046875,0,0,0.8046875,12.760752631578946,26.141730212525147)"><svg viewBox="0 0 95 70" data-background-color="#c9efc7" preserveAspectRatio="xMidYMid meet" height="94" width="128" xmlns="http://www.w3.org/2000/svg" xmlns:xlink="http://www.w3.org/1999/xlink"><g id="tight-bounds" transform="matrix(1,0,0,1,-0.24049999999999727,0.03512676056338648)"><svg viewBox="0 0 95.481 69.92974647887323" height="69.92974647887323" width="95.481"><g><svg viewBox="0 0 95.481 69.92974647887323" height="69.92974647887323" width="95.481"><g><svg viewBox="0 0 95.481 69.92974647887323" height="69.92974647887323" width="95.481"><g id="textblocktransform"><svg viewBox="0 0 95.481 69.92974647887323" height="69.92974647887323" width="95.481" id="textblock"><g><svg viewBox="0 0 95.481 69.92974647887323" height="69.92974647887323" width="95.481"><g><svg viewBox="0 0 95.481 69.92974647887323" height="69.92974647887323" width="95.481"><g><svg xmlns="http://www.w3.org/2000/svg" xmlns:xlink="http://www.w3.org/1999/xlink" version="1.1" x="0" y="0" viewBox="14 24 71 52" enable-background="new 0 0 100 100" xml:space="preserve" height="69.92974647887323" width="95.481" class="icon-icon-0" data-fill-palette-color="accent" id="icon-0"><g fill="#454545" data-fill-palette-color="accent"><g fill="#454545" data-fill-palette-color="accent"><g fill="#454545" data-fill-palette-color="accent"><path d="M27 61h-8.5c-2.1 0-4.5-1.7-4.5-4V28c0-2.3 2.4-4 4.5-4h48c2.1 0 3.5 1.6 3.5 4v9h-2v-9c0-0.6-0.1-2-1.5-2h-48c-1.1 0-2.5 0.9-2.5 2v29c0 1.1 1.4 2 2.5 2H27V61z" fill="#454545" data-fill-palette-color="accent"></path></g><g fill="#454545" data-fill-palette-color="accent"><rect x="21" y="45" width="6" height="2" fill="#454545" data-fill-palette-color="accent"></rect></g><g fill="#454545" data-fill-palette-color="accent"><rect x="21" y="52" width="6" height="2" fill="#454545" data-fill-palette-color="accent"></rect></g><g fill="#454545" data-fill-palette-color="accent"><rect x="15" y="32" width="54" height="2" fill="#454545" data-fill-palette-color="accent"></rect></g><g fill="#454545" data-fill-palette-color="accent"><rect x="15" y="39" width="12" height="2" fill="#454545" data-fill-palette-color="accent"></rect></g></g><g fill="#454545" data-fill-palette-color="accent"><g fill="#454545" data-fill-palette-color="accent"><path d="M81 76H33c-2.2 0-4-1.8-4-4V43c0-2.2 1.8-4 4-4h48c2.2 0 4 1.8 4 4v29C85 74.2 83.2 76 81 76zM33 41c-1.1 0-2 0.9-2 2v29c0 1.1 0.9 2 2 2h48c1.1 0 2-0.9 2-2V43c0-1.1-0.9-2-2-2H33z" fill="#454545" data-fill-palette-color="accent"></path></g><g fill="#454545" data-fill-palette-color="accent"><rect x="36" y="60" width="36" height="2" fill="#454545" data-fill-palette-color="accent"></rect></g><g fill="#454545" data-fill-palette-color="accent"><rect x="36" y="67" width="15" height="2" fill="#454545" data-fill-palette-color="accent"></rect></g><g fill="#454545" data-fill-palette-color="accent"><rect x="30" y="47" width="54" height="2" fill="#454545" data-fill-palette-color="accent"></rect></g><g fill="#454545" data-fill-palette-color="accent"><rect x="30" y="54" width="54" height="2" fill="#454545" data-fill-palette-color="accent"></rect></g></g></g></svg></g></svg></g></svg></g></svg></g></svg></g></svg></g><defs></defs></svg><rect width="95.481" height="69.92974647887323" fill="none" stroke="none" visibility="hidden"></rect></g></svg></g></svg>